<svg height="647" width="592" xmlns="http://www.w3.org/2000/svg"><linearGradient id="a" x1="50%" x2="50%" y1="100%" y2="31.273%"><stop offset="0" stop-color="#99cbff" stop-opacity="0"/><stop offset="1" stop-color="#edf3fd"/></linearGradient><g fill="none" fill-rule="evenodd"><path d="M49 550h427v1H49z" fill="#edf3fd"/><path d="M427 259h-39v17h39zm-45 0h-39v17h39zm-45 0h-18v17h18zm157 66h-39v17h39zm-45 0h-39v17h39zm-45 0h-39v17h39zm90-21h-17v17h17zm0-110h-39v17h39zm-45 0h-39v17h39zm45-22h-17v17h17zm0 44h-17v17h17zm-22 0h-39v17h39zm-45 0h-39v17h39zm-45 0h-39v17h39z" fill="#edf3fd" fill-rule="nonzero"/><path d="M122.419 180L188 330H0l65.581-150z" fill="url(#a)" transform="translate(248)"/><g transform="translate(310)"><path d="M65 183.371c0-27.054-14.55-48.985-32.5-48.985S0 156.317 0 183.37M31.694 0h1.612v134.386h-1.612z" fill="#231f20"/><ellipse cx="32.5" cy="183.371" fill="#b5d3ff" rx="32.5" ry="3.629"/></g><path d="M287.562 472.936a7.544 7.544 0 017.465 9.228l-36.571 159.621a3 3 0 01-3.484 2.278l-1.753-.333a3 3 0 01-2.401-3.428l25.593-157.736c.89-5.49 5.59-9.548 11.151-9.63z" fill="#fb8b82"/><g fill="#0b2564"><path d="M379 510c33.214 0 57.583-28.008 55.357-61.336-.074-1.115-30.022-3.93-87.474-1.667-6.39.252-16.38 1.806-29.968 4.663C336.163 490.553 356.858 510 379 510z"/><path d="M283.348 457.066l63.535-10.069 33.85 40.417c4.61 5.504 3.885 13.703-1.619 18.313a13 13 0 01-10.37 2.876l-85.394-13.454c-9.368-1.477-16.27-9.55-16.27-19.034 0-9.487 6.899-17.564 16.268-19.05z"/><path d="M287.042 458.148c8.654.81 15.013 8.482 14.203 17.136a15.738 15.738 0 01-.41 2.387l-33.783 133.774-12.545-5.215a3 3 0 01-1.831-3.097L266.75 474.7c1.11-10.132 10.143-17.5 20.292-16.55z"/></g><path d="M250.104 625.734a9.352 9.352 0 0013.64 2.01 12.007 12.007 0 011.574 1.744l3.158 4.274a6.887 6.887 0 01-5.539 10.98h-36.465a5.333 5.333 0 01-5.334-5.333 7.086 7.086 0 015.125-6.81z" fill="#191847"/><path d="M282.672 355.485l26.96-16.98-.918 26.771-27.216-7.756z" fill="#fb8b82"/><path d="M305 331.706c16.755-13.492 38.04-21.565 61.205-21.565 54.01 0 97.795 43.883 97.795 98.015 0 22.597-7.63 43.407-20.447 59.985-17.586-22.745-44.938-37.523-75.753-38.017-8.945-30.815-32.58-55.362-62.8-65.519v-32.9z" fill="#fff"/><path d="M308.76 476.596a7.53 7.53 0 0111.453 3.08l63.854 150.543a3 3 0 01-1.477 3.882l-1.617.766a3 3 0 01-3.965-1.364l-71.622-142.525a11.52 11.52 0 013.373-14.382z" fill="#fb8b82"/><path d="M396.2 509.988c33.224 0 62.384-27.035 60.157-60.327-.074-1.114-30.03-3.926-87.5-1.665-6.392.252-16.384 1.804-29.976 4.658 16.064 38.222 35.17 57.334 57.32 57.334z" fill="#0052e2"/><path d="M305.282 458.058l63.575-10.062 27.3 41.759c3.928 6.01 2.241 14.066-3.768 17.994a13 13 0 01-9.313 1.932l-77.83-13.362c-9.367-1.609-16.215-9.732-16.215-19.237 0-9.475 6.892-17.543 16.25-19.024z" fill="#0052e2"/><path d="M299.68 464.953c7.52-4.474 17.243-2.005 21.717 5.515.4.674.751 1.377 1.048 2.103l56.895 139.115-15.798-1.501a3 3 0 01-2.316-1.49l-68.174-118.404c-5.089-8.838-2.136-20.124 6.628-25.338z" fill="#0052e2"/><g fill="#191847"><path d="M372.05 626.54a9.358 9.358 0 007.745 4.101 9.32 9.32 0 005.899-2.094c.572.52 1.1 1.101 1.572 1.74l3.161 4.271a6.877 6.877 0 01-5.528 10.969h-36.496a5.328 5.328 0 01-5.327-5.328 7.075 7.075 0 015.12-6.8z"/><g transform="translate(377 509.141)"><path d="M26.747 5.48h5.507V135h-5.507z"/><path d="M22.813 131.52h28.32v4.697h-28.32z"/><rect height="8.611" rx="2" width="59"/><rect height="40.709" rx="2" width="13.373" x="22.813" y="20.354"/></g><path d="M228.783 645.359h-4.5V453.706h4.5z"/></g><path d="M262.737 364.703c-9.738-6.622-12.85-19.75-6.862-30.123 6.274-10.865 20.158-14.594 31.012-8.327 10.854 6.266 14.567 20.155 8.294 31.02-5.124 8.875-15.325 12.988-24.806 10.784a7.033 7.033 0 00-7.638-3.354z" fill="#fb8b82"/><path d="M283.541 319.154l-3.575 1.265 6.527 2.379.018.028a23.631 23.631 0 0113.503 21.102c-5.764 5.572-13.59 8.996-22.21 8.996-9.833 0-18.633-4.457-24.518-11.475l.019-.154a7.046 7.046 0 01-7.795-7.01 7.048 7.048 0 016.403-7.022c.23.953.73 1.802 1.412 2.461 1.215-8.769 8.733-15.52 17.826-15.52 4.801 0 9.163 1.882 12.39 4.95z" fill="#191847"/><path d="M276.643 348.263l-.995.344a2.615 2.615 0 00-.684 4.585l3.78 2.752a3.508 3.508 0 004.73-.555 3.75 3.75 0 00-.025-4.907l-.468-.535a5.869 5.869 0 00-6.338-1.684z" fill="#fb8b82"/><path d="M592 644.141v2l-592-1z" fill="#191847"/><path d="M196 448.141h56v5h-56z" fill="#d1dbed"/><path d="M143 440.141h162v7H143z" fill="#edf3fd"/><path d="M184 435.141h52v4h-52z" fill="#191847"/><path d="M158.168 392.618l1.355-.783 26.214 45.454-1.354.784z" fill="#191847"/><path d="M240.083 433.5c22.018 4.026 45.443 2.05 67.781-6.975 34.455-13.92 59.118-41.7 70.082-74.221l-53.942-7.412c-11.336 31.523-35.641 58.323-69.278 71.913a123.547 123.547 0 01-18.984 5.95l4.34 10.744z" fill="#deedfe"/><path d="M237.833 433.175l-18.263.638a1 1 0 01-1.035-.965l-.383-10.965a1 1 0 01.965-1.034l18.263-.638a1 1 0 011.034.964l.383 10.966a1 1 0 01-.964 1.034zm-8.753-4.033l-10.677-1.46.128 3.66 10.55-2.2z" fill="#fb8b82" fill-rule="nonzero"/><path d="M238.763 429.733c22.019 4.027 45.444 2.051 67.782-6.974 34.454-13.92 59.118-41.701 70.081-74.222l-53.942-7.412c-11.336 31.524-35.64 58.324-69.277 71.914a123.547 123.547 0 01-18.985 5.95z" fill="#fff"/><path d="M193.315 282.118l-1.436 2.488-17.805-8.493-4.883 7.131-7.795-3.734-11.172 16.258-2.488-1.436 11.062-16.067-17.613-8.383 1.436-2.488 25.6 12.228 16.055-23.39 2.488 1.436-11.062 16.067zm-56.597-18.643c-1.308.351-2.315 1.12-3.022 2.306-.706 1.187-.877 2.46-.513 3.818l7.764 28.978c.364 1.358 1.136 2.378 2.316 3.06 1.18.68 2.45.84 3.808.476l50.71-13.588c1.309-.351 2.316-1.12 3.023-2.306.706-1.187.877-2.46.513-3.818l-7.764-28.978c-.364-1.358-1.136-2.378-2.316-3.06-1.18-.68-2.45-.84-3.808-.476l-50.71 13.588z" fill="#2150d9"/><circle cx="190.5" cy="249.5" fill="#fb8b82" r="8.5" stroke="#fff" stroke-width="4"/><path d="M54.786 614.952l6.415 29.937h26.946l6.416-29.937z" fill="#191847"/><path d="M78.639 596.492c7.96-6.75 16.643-12.274 25.008-18.368 4.12-3.002 3.45-7.048-3.473-7.14-3.67-.048-10.166 4.362-13.469 5.778-6.894 2.957-14.624 1.42-5.664-4.636 5.242-3.543 19.944-8.296 20.794-15.377 1.02-8.499-11.59-.95-15.763.769-9.444 3.893-13.49-1.145-5.03-7.047 1.866-1.303 22.441-14.688 14.778-18.096-6.29-2.798-12.242 9.879-17.86 8.518-7.284-1.763 2.227-12.06 4.465-14.61 2.313-2.636 8.071-6.724 8.584-10.235.875-5.975-4.76-4.18-7.725-1.661-2.298 1.953-4.505 7.61-7.088 5.463-3.223-2.679 1.291-13.261.15-16.81-.853-2.66-5.084-5.278-8.735-3.407-5.297 2.716-4.121 15.71-4.195 20.74-2.186-2.358-5.808-7.724-9.025-8.807-4.734-1.594-7.432 2.132-6.034 6.32 2.102 6.299 9.213 10.626 11.933 16.55 1.575 3.43 1.11 4.734.226 8.84l-17.775-12.631c-2.598-1.846-11.738-9.215-12.33-.728-.402 5.812 15.47 14.841 19.64 18 2.851 2.159 12.704 6.777 11.915 10.847-1.979 10.205-20.988-9.352-22.992-9.886-1.502-.4-5.326.779-6.004 2.382-1.67 3.954 7.242 9.102 9.936 11.241 1.715 1.362 17.06 10.409 12.726 14.28-5.798 5.175-24.323-15.952-30.206-.003-4.018 10.89 21.574 8.059 27.343 9.02 8.28 1.38 19.346 11.304 19.346 19.45" fill="#edf3fd"/><path d="M83.852 598.39c11.308-2.416 22.595-3.329 33.907-4.93 5.573-.79 7.247-4.91.806-8.395-3.415-1.848-12.017-.907-15.917-1.202-8.15-.614-14.524-5.85-2.675-7.125 6.932-.745 23.425 2.02 28.252-4.197 5.793-7.461-10.327-6.582-15.222-7.02-11.07-.99-11.996-7.697-.704-9.075 2.492-.303 29.403-2.74 24.158-9.697-4.309-5.71-17.103 3.245-21.597-.788-5.828-5.23 8.95-10.206 12.503-11.498 3.668-1.333 11.396-2.338 13.875-5.374 4.221-5.17-2.086-6.258-6.3-5.353-3.267.704-8.556 4.92-9.755 1.641-1.499-4.093 8.757-11.793 9.708-15.678.713-2.911-1.766-7.442-6.254-7.48-6.512-.057-12.806 12.696-15.738 17.373-.708-3.283-1.05-10.092-3.45-12.685-3.533-3.82-8.182-1.65-9.256 2.958-1.614 6.936 2.593 14.482 1.771 21.368-.475 3.988-1.653 4.98-4.818 8.395l-9.481-20.564c-1.386-3.006-5.764-14.4-11.148-6.735-3.686 5.246 6.06 21.5 8.174 26.509 1.443 3.42 8.055 12.587 4.999 16.014-7.664 8.59-14.36-19.07-15.935-20.555-1.181-1.11-5.438-1.884-6.985-.715-3.816 2.885 1.61 12.083 2.919 15.41.832 2.118 10.076 18.132 3.808 19.63-8.383 2.004-13.732-26.889-28.326-14.834-9.966 8.232 15.645 18.143 20.508 21.878 6.98 5.36 11.708 20.091 7.072 27.725" fill="#d1dbed"/><path d="M49 617.143h51.348V604H49z" fill="#191847"/></g></svg>